<?xml version="1.0" encoding="UTF-8"?>
<svg xmlns="http://www.w3.org/2000/svg" xmlns:xlink="http://www.w3.org/1999/xlink" width="18px" height="18px" viewBox="0 0 18 18" version="1.1">
<g id="surface1">
<path style=" stroke:none;fill-rule:nonzero;fill:rgb(0%,0%,0%);fill-opacity:1;" d="M 7.886719 1.417969 C 7.292969 1.496094 6.308594 1.800781 5.71875 2.082031 C 4.8125 2.5 4.148438 2.960938 3.433594 3.675781 C 2.425781 4.683594 1.761719 5.84375 1.378906 7.285156 C 1.210938 7.933594 1.175781 8.222656 1.175781 9.207031 C 1.175781 10.191406 1.210938 10.480469 1.378906 11.128906 C 2 13.453125 3.410156 15.191406 5.558594 16.261719 C 6.671875 16.824219 6.679688 16.816406 6.710938 15.765625 L 6.734375 14.910156 L 6.222656 14.910156 C 5.941406 14.910156 5.550781 14.859375 5.355469 14.8125 C 4.890625 14.683594 4.402344 14.179688 4.195312 13.613281 C 4.074219 13.261719 3.964844 13.117188 3.621094 12.859375 C 3.394531 12.691406 3.203125 12.5 3.203125 12.441406 C 3.203125 12.273438 3.707031 12.21875 3.980469 12.355469 C 4.210938 12.476562 4.660156 12.929688 5.042969 13.4375 C 5.261719 13.722656 5.726562 13.925781 6.164062 13.925781 C 6.621094 13.933594 6.789062 13.851562 6.878906 13.589844 C 6.925781 13.460938 7.054688 13.226562 7.167969 13.082031 C 7.277344 12.941406 7.367188 12.804688 7.367188 12.789062 C 7.367188 12.769531 7.230469 12.730469 7.0625 12.699219 C 6.351562 12.585938 5.269531 12.003906 4.8125 11.488281 C 4.164062 10.746094 3.882812 9.878906 3.941406 8.800781 C 3.980469 8.09375 4.179688 7.503906 4.546875 6.980469 C 4.683594 6.796875 4.699219 6.660156 4.667969 6.003906 C 4.644531 5.476562 4.660156 5.148438 4.738281 4.925781 C 4.851562 4.605469 4.851562 4.605469 5.246094 4.621094 C 5.53125 4.636719 5.84375 4.738281 6.375 5.003906 C 7.085938 5.363281 7.109375 5.371094 7.496094 5.277344 C 8.039062 5.148438 9.855469 5.148438 10.503906 5.277344 C 11.019531 5.378906 11.050781 5.371094 11.296875 5.195312 C 11.707031 4.910156 12.417969 4.644531 12.828125 4.644531 L 13.203125 4.644531 L 13.300781 5.101562 C 13.347656 5.363281 13.371094 5.820312 13.347656 6.15625 C 13.308594 6.671875 13.324219 6.789062 13.460938 6.972656 C 13.820312 7.488281 14.027344 8.09375 14.070312 8.75 C 14.1875 10.609375 13.285156 11.929688 11.464844 12.5625 C 11.195312 12.652344 10.898438 12.730469 10.808594 12.730469 C 10.625 12.730469 10.601562 12.835938 10.761719 12.964844 C 10.824219 13.011719 10.953125 13.242188 11.058594 13.476562 C 11.21875 13.835938 11.25 14.058594 11.289062 15.253906 L 11.328125 16.613281 L 11.570312 16.597656 C 11.960938 16.566406 13.203125 15.902344 13.910156 15.339844 C 15.964844 13.707031 17.0625 11.113281 16.816406 8.496094 C 16.421875 4.410156 12.996094 1.3125 8.9375 1.371094 C 8.496094 1.378906 8.023438 1.402344 7.886719 1.417969 Z M 7.886719 1.417969 "/>
</g>
</svg>
