<?xml version="1.0" encoding="utf-8"?>
<!-- Generator: Adobe Illustrator 27.0.0, SVG Export Plug-In . SVG Version: 6.00 Build 0)  -->
<svg version="1.1" id="Layer_1" xmlns="http://www.w3.org/2000/svg" xmlns:xlink="http://www.w3.org/1999/xlink" x="0px" y="0px"
	 viewBox="0 0 561 559" style="enable-background:new 0 0 561 559;" xml:space="preserve">
<style type="text/css">
	.st0{fill:url(#SVGID_1_);}
	.st1{fill:#FFFFFF;}
	.st2{fill:#CCCCCC;}
	.st3{fill:url(#SVGID_00000003786956128059950220000015106824223079421335_);}
	.st4{fill:url(#SVGID_00000149368779332625527600000004287728867296412600_);}
	.st5{fill:#565656;}
	.st6{fill:url(#SVGID_00000068641186297736665090000000736964445565996199_);}
	.st7{fill:url(#SVGID_00000170264742090397228970000014929658823579937973_);}
	.st8{fill:#1A42E2;}
	.st9{fill:url(#SVGID_00000127032160950925601200000014660213191776645542_);}
	.st10{fill:url(#SVGID_00000011004942446916886990000014218889301197989055_);}
	.st11{fill:#7ED4EF;}
	.st12{fill:#0169C2;}
	.st13{fill:#0F1127;}
	.st14{fill:url(#SVGID_00000112598639125788474810000008607968524283466409_);}
</style>
<linearGradient id="SVGID_1_" gradientUnits="userSpaceOnUse" x1="32.1808" y1="266.6112" x2="518.2342" y2="266.6112">
	<stop  offset="0" style="stop-color:#7ED4EF"/>
	<stop  offset="0.1723" style="stop-color:#66B1EC"/>
	<stop  offset="0.441" style="stop-color:#4682E8"/>
	<stop  offset="0.6784" style="stop-color:#2E5FE5"/>
	<stop  offset="0.8728" style="stop-color:#1F4AE3"/>
	<stop  offset="1" style="stop-color:#1A42E2"/>
</linearGradient>
<path class="st0" d="M518.23,266.61c0-14.29-5.86-27.18-15.29-36.47c-6.41-6.31-9.92-14.98-9.92-23.97v-60.23
	c0-8.77,3.93-16.87,10.14-23.06c11.28-11.24,17.36-27.67,14.28-45.44c-3.63-20.88-20.44-37.69-41.31-41.32
	c-17.77-3.09-34.21,2.99-45.45,14.28c-6.19,6.21-14.29,10.14-23.06,10.14h-71.96c-8.99,0-17.66-3.52-23.97-9.92
	c-9.29-9.43-22.18-15.29-36.47-15.29c-14.29,0-27.18,5.86-36.47,15.29c-6.31,6.41-14.98,9.92-23.97,9.92H142.8
	c-8.77,0-16.87-3.93-23.05-10.14c-10.42-10.46-25.3-16.45-41.57-14.81c-23.68,2.38-43.05,21.52-45.67,45.18
	c-3.43,30.95,20.72,57.15,50.98,57.15c14.29,0,27.18-5.86,36.47-15.29c6.31-6.41,14.98-9.92,23.97-9.92h70.85
	c9,0,17.67,3.55,24,9.95c0.16,0.16,0.31,0.31,0.47,0.47c6.44,6.35,10.02,15.03,10.02,24.07v58.82c0,9.02-3.54,17.72-9.98,24.03
	c-9.48,9.3-15.38,22.23-15.38,36.56s5.89,27.26,15.38,36.56c6.44,6.31,9.98,15.01,9.98,24.03v58.82c0,9.04-3.58,17.72-10.02,24.07
	c-0.16,0.16-0.32,0.31-0.47,0.47c-6.33,6.4-14.99,9.95-24,9.95H142.8c-8.77,0-16.87-3.93-23.05-10.14
	c-10.42-10.46-25.3-16.45-41.57-14.81c-23.68,2.38-43.05,21.52-45.67,45.18c-3.43,30.95,20.72,57.15,50.98,57.15
	c14.29,0,27.18-5.86,36.47-15.29c6.31-6.41,14.98-9.92,23.97-9.92h70.84c8.99,0,17.66,3.52,23.97,9.92
	c9.29,9.43,22.18,15.29,36.47,15.29c14.29,0,27.18-5.86,36.47-15.29c6.31-6.41,14.98-9.92,23.97-9.92h71.96
	c8.77,0,16.87,3.93,23.06,10.14c11.24,11.28,27.67,17.36,45.45,14.28c20.88-3.63,37.69-20.44,41.31-41.32
	c3.09-17.77-3-34.2-14.28-45.44c-6.21-6.19-10.14-14.29-10.14-23.06v-60.23c0-8.99,3.52-17.66,9.92-23.97
	C512.38,293.79,518.23,280.9,518.23,266.61z M406.5,420.51h-70.86c-9.04,0-17.7-3.61-24.07-10.02c-0.06-0.06-0.12-0.12-0.18-0.18
	c-6.38-6.36-9.95-14.99-9.95-24V326.9c0-9,3.57-17.64,9.95-24c0.06-0.06,0.12-0.12,0.18-0.18c6.37-6.41,15.03-10.02,24.07-10.02
	h70.86c9.02,0,17.68,3.58,24.03,9.99c0.11,0.11,0.22,0.22,0.33,0.33c6.41,6.35,9.99,15.01,9.99,24.03v59.12
	c0,9.02-3.58,17.68-9.99,24.03c-0.11,0.11-0.22,0.22-0.33,0.33C424.18,416.93,415.52,420.51,406.5,420.51z M335.64,112.71h70.86
	c9.02,0,17.68,3.58,24.03,9.99c0.11,0.11,0.22,0.22,0.33,0.33c6.41,6.35,9.99,15.01,9.99,24.03v59.12c0,9.02-3.58,17.68-9.99,24.03
	c-0.11,0.11-0.22,0.22-0.33,0.33c-6.35,6.41-15.01,9.99-24.03,9.99h-70.86c-9.04,0-17.7-3.61-24.07-10.02
	c-0.06-0.06-0.12-0.12-0.18-0.18c-6.38-6.36-9.95-14.99-9.95-24v-59.41c0-9,3.57-17.64,9.95-24c0.06-0.06,0.12-0.12,0.18-0.18
	C317.94,116.32,326.6,112.71,335.64,112.71z"/>
</svg>
