<svg style="enable-background:new 0 0 2251 559;" xmlns="http://www.w3.org/2000/svg" viewBox="644.84 59.47 1552.65 412.64">   <defs>     <style type="text/css"> 	.st1{fill:#FFFFFF;} 	.st2{fill:#CCCCCC;} 	.st3{fill:url(#SVGID_00000137829684792687994240000009955204345193588895_);} 	.st4{fill:url(#SVGID_00000012470076023515933130000001512329701461861049_);} 	.st5{fill:#565656;} 	.st6{fill:url(#SVGID_00000000194966807064648040000012230949679302140046_);} 	.st7{fill:url(#SVGID_00000001658685672417193030000011266006761906726323_);} 	.st8{fill:#1A42E2;} 	.st9{fill:url(#SVGID_00000111877445641199618220000010266207134026945678_);} 	.st10{fill:url(#SVGID_00000054948413782335165680000011509790826615241661_);} 	.st11{fill:#7ED4EF;} 	.st12{fill:#0169C2;} 	.st13{fill:#0F1127;} 	.st14{fill:url(#SVGID_00000064348051863583238680000004627505104525278374_);} </style>   </defs>   <g>     <g>       <g>         <path class="st8" d="M787.11,172.16c18.88,11.16,28.33,28,28.33,50.54c0,19.96-6.87,35.94-20.6,47.96&#10;&#9;&#9;&#9;&#9;c-13.74,12.02-32.08,18.03-55.04,18.03h-94.96V63.36h88.84c22.53,0,40.56,5.74,54.08,17.22c13.52,11.48,20.28,27.09,20.28,46.83&#10;&#9;&#9;&#9;&#9;C808.03,146.3,801.05,161.21,787.11,172.16z M732.07,114.86h-29.61v35.41h29.61c5.15,0,9.5-1.55,13.04-4.67&#10;&#9;&#9;&#9;&#9;c3.54-3.11,5.31-7.45,5.31-13.04c0-5.36-1.72-9.66-5.15-12.87C741.83,116.47,737.43,114.86,732.07,114.86z M738.18,237.18&#10;&#9;&#9;&#9;&#9;c5.79,0,10.51-1.77,14.16-5.31c3.65-3.54,5.47-8.1,5.47-13.68c0-5.79-1.83-10.41-5.47-13.84c-3.65-3.43-8.37-5.15-14.16-5.15&#10;&#9;&#9;&#9;&#9;h-35.73v37.98H738.18z"/>       </g>     </g>     <g>       <g>         <path class="st8" d="M1030.45,63.36l-75.96,138.73v86.59h-57.62v-85.94L820.91,63.36h64.7l39.91,83.37l40.24-83.37H1030.45z"/>       </g>     </g>     <g>       <g>         <path class="st8" d="M1213.92,63.36v55.69h-55.69v169.63h-57.62V119.05h-55.69V63.36H1213.92z"/>       </g>     </g>     <g>       <g>         <path class="st8" d="M1303.73,234.6h87.23v54.08h-144.85V63.36h143.24v53.75h-85.62v31.22h77.57v53.11h-77.57V234.6z"/>       </g>     </g>     <g>       <g>         <path d="M1486.11,288.68l-64.58-225.32h23.79l55.7,194.69l58.6-194.69h26.47l58.68,194.96l55.51-194.96h22.79l-64.31,225.32&#10;&#9;&#9;&#9;&#9;h-27.04l-58.87-195.59l-58.87,195.59H1486.11z" style="fill: rgb(255, 255, 255);"/>       </g>     </g>     <g>       <g>         <path d="M1770.78,63.36h22.53v225.32h-22.53V63.36z" style="fill: rgb(255, 255, 255);"/>       </g>     </g>     <g>       <g>         <path d="M1923.67,292.54c-20.6,0-38.25-4.88-52.95-14.65c-14.7-9.76-24.95-23.23-30.74-40.4l19.31-11.27&#10;&#9;&#9;&#9;&#9;c4.07,13.95,11.59,24.84,22.53,32.67c10.94,7.84,25,11.75,42.17,11.75c16.74,0,29.77-3.7,39.11-11.11c9.33-7.4,14-17.22,14-29.45&#10;&#9;&#9;&#9;&#9;c0-11.8-4.3-20.71-12.87-26.72c-8.59-6.01-22.75-12.23-42.49-18.67c-23.39-7.73-38.84-13.95-46.35-18.67&#10;&#9;&#9;&#9;&#9;c-17.17-10.3-25.75-25.21-25.75-44.74c0-19.1,6.65-34.17,19.96-45.23c13.3-11.05,29.72-16.58,49.25-16.58&#10;&#9;&#9;&#9;&#9;c17.59,0,32.83,4.56,45.71,13.68c12.87,9.12,22.42,20.76,28.65,34.92l-18.99,10.62c-10.3-24.89-28.76-37.34-55.36-37.34&#10;&#9;&#9;&#9;&#9;c-13.95,0-25.22,3.43-33.8,10.3c-8.58,6.87-12.87,16.41-12.87,28.65c0,11.16,3.86,19.53,11.59,25.11&#10;&#9;&#9;&#9;&#9;c7.73,5.58,20.49,11.27,38.3,17.06c8.15,2.79,14,4.78,17.54,5.95c3.54,1.18,8.69,3.11,15.45,5.79&#10;&#9;&#9;&#9;&#9;c6.76,2.69,11.75,5.04,14.97,7.08c3.22,2.04,7.13,4.83,11.75,8.37c4.61,3.54,7.94,7.08,9.98,10.62&#10;&#9;&#9;&#9;&#9;c2.04,3.54,3.86,7.84,5.47,12.88c1.61,5.04,2.41,10.46,2.41,16.26c0,19.1-6.98,34.39-20.92,45.87&#10;&#9;&#9;&#9;&#9;C1964.76,286.8,1946.42,292.54,1923.67,292.54z" style="fill: rgb(255, 255, 255);"/>       </g>     </g>     <g>       <g>         <path d="M2070.45,267.44h109.44v21.24h-131.97V63.36h130.36V84.6h-107.83v79.83h99.79v21.24h-99.79V267.44z" style="fill: rgb(255, 255, 255);"/>       </g>     </g>   </g>   <g>     <path d="M722.54,361.95v10.21h-33.27v98.09h-10.83v-98.09h-33.27v-10.21H722.54z" style="fill: rgb(255, 255, 255);"/>     <path d="M787.52,460.04h52.61v10.21h-63.44V361.95h62.66v10.21h-51.83v38.37h47.96v10.21h-47.96V460.04z" style="fill: rgb(255, 255, 255);"/>     <path d="M947.2,472.11c-16.4,0-29.97-5.42-40.69-16.25c-10.73-10.83-16.09-24.08-16.09-39.76c0-15.68,5.36-28.93,16.09-39.76&#10;&#9;&#9;c10.73-10.83,24.29-16.25,40.69-16.25c10,0,19.19,2.4,27.54,7.2c8.36,4.8,14.8,11.27,19.34,19.42l-9.59,5.57&#10;&#9;&#9;c-3.4-6.6-8.46-11.86-15.16-15.78c-6.71-3.92-14.08-5.88-22.13-5.88c-13.51,0-24.55,4.39-33.11,13.15&#10;&#9;&#9;c-8.56,8.77-12.84,19.55-12.84,32.34c0,12.79,4.28,23.57,12.84,32.34c8.56,8.77,19.6,13.15,33.11,13.15&#10;&#9;&#9;c8.05,0,15.42-1.96,22.13-5.88c6.7-3.92,11.76-9.18,15.16-15.78l9.59,5.41c-4.44,8.15-10.86,14.65-19.26,19.49&#10;&#9;&#9;C966.41,469.69,957.2,472.11,947.2,472.11z" style="fill: rgb(255, 255, 255);"/>     <path d="M1120.18,361.95h10.83v108.31h-10.83v-50.59h-58.79v50.59h-10.83V361.95h10.83v47.5h58.79V361.95z" style="fill: rgb(255, 255, 255);"/>     <path d="M1264.07,361.95h10.83v108.31h-9.28l-60.34-88.19v88.19h-10.83V361.95h9.44l60.18,87.96V361.95z" style="fill: rgb(255, 255, 255);"/>     <path d="M1427.92,455.79c-10.83,10.88-24.09,16.32-39.77,16.32c-15.68,0-28.93-5.44-39.76-16.32&#10;&#9;&#9;c-10.83-10.88-16.24-24.11-16.24-39.69c0-15.57,5.41-28.8,16.24-39.69c10.83-10.88,24.08-16.32,39.76-16.32&#10;&#9;&#9;c15.68,0,28.93,5.44,39.77,16.32c10.83,10.88,16.24,24.11,16.24,39.69C1444.16,431.68,1438.75,444.91,1427.92,455.79z&#10;&#9;&#9; M1355.97,448.36c8.66,8.82,19.39,13.23,32.18,13.23c12.79,0,23.52-4.41,32.18-13.23c8.66-8.82,13-19.57,13-32.26&#10;&#9;&#9;c0-12.69-4.33-23.44-13-32.26s-19.39-13.23-32.18-13.23c-12.79,0-23.52,4.41-32.18,13.23s-13,19.57-13,32.26&#10;&#9;&#9;C1342.97,428.79,1347.31,439.54,1355.97,448.36z" style="fill: rgb(255, 255, 255);"/>     <path d="M1512.24,460.04h49.51v10.21h-60.34V361.95h10.83V460.04z" style="fill: rgb(255, 255, 255);"/>     <path d="M1697.75,455.79c-10.83,10.88-24.09,16.32-39.76,16.32c-15.68,0-28.93-5.44-39.76-16.32&#10;&#9;&#9;c-10.83-10.88-16.25-24.11-16.25-39.69c0-15.57,5.42-28.8,16.25-39.69c10.83-10.88,24.08-16.32,39.76-16.32&#10;&#9;&#9;c15.68,0,28.93,5.44,39.76,16.32c10.83,10.88,16.24,24.11,16.24,39.69C1714,431.68,1708.58,444.91,1697.75,455.79z M1625.8,448.36&#10;&#9;&#9;c8.66,8.82,19.39,13.23,32.18,13.23c12.79,0,23.52-4.41,32.18-13.23c8.66-8.82,13-19.57,13-32.26c0-12.69-4.33-23.44-13-32.26&#10;&#9;&#9;c-8.66-8.82-19.39-13.23-32.18-13.23c-12.79,0-23.52,4.41-32.18,13.23c-8.66,8.82-13,19.57-13,32.26&#10;&#9;&#9;C1612.81,428.79,1617.14,439.54,1625.8,448.36z" style="fill: rgb(255, 255, 255);"/>     <path d="M1874.75,418.73v5.57c0,13.41-4.8,24.73-14.39,33.96c-9.59,9.23-22.43,13.85-38.53,13.85c-16.4,0-29.97-5.42-40.69-16.25&#10;&#9;&#9;c-10.73-10.83-16.09-24.08-16.09-39.76c0-15.68,5.36-28.93,16.09-39.76c10.73-10.83,24.29-16.25,40.69-16.25&#10;&#9;&#9;c10,0,19.19,2.43,27.54,7.27c8.36,4.85,14.8,11.29,19.34,19.34l-9.59,5.57c-3.4-6.6-8.46-11.86-15.16-15.78&#10;&#9;&#9;c-6.71-3.92-14.08-5.88-22.13-5.88c-13.51,0-24.55,4.39-33.11,13.15c-8.56,8.77-12.84,19.55-12.84,32.34&#10;&#9;&#9;c0,12.79,4.28,23.57,12.84,32.34c8.56,8.77,19.6,13.15,33.11,13.15c12.17,0,21.92-3.07,29.24-9.21&#10;&#9;&#9;c7.32-6.14,11.5-13.95,12.53-23.44h-43.01v-10.21H1874.75z" style="fill: rgb(255, 255, 255);"/>     <path d="M1932,361.95h10.83v108.31H1932V361.95z" style="fill: rgb(255, 255, 255);"/>     <path d="M2017.09,460.04h52.61v10.21h-63.44V361.95h62.66v10.21h-51.83v38.37h47.96v10.21h-47.96V460.04z" style="fill: rgb(255, 255, 255);"/>     <path d="M2160.98,472.11c-9.9,0-18.39-2.34-25.45-7.04c-7.07-4.69-11.99-11.16-14.78-19.42l9.28-5.41&#10;&#9;&#9;c1.96,6.71,5.57,11.94,10.83,15.7c5.26,3.77,12.01,5.65,20.27,5.65c8.05,0,14.31-1.78,18.8-5.34c4.49-3.56,6.73-8.28,6.73-14.16&#10;&#9;&#9;c0-5.67-2.06-9.95-6.19-12.84c-4.13-2.89-10.93-5.88-20.42-8.97c-11.24-3.71-18.67-6.7-22.28-8.97&#10;&#9;&#9;c-8.25-4.95-12.38-12.12-12.38-21.51c0-9.18,3.2-16.42,9.59-21.74c6.39-5.31,14.29-7.97,23.67-7.97c8.46,0,15.78,2.19,21.97,6.58&#10;&#9;&#9;c6.19,4.39,10.78,9.98,13.77,16.79l-9.13,5.11c-4.95-11.96-13.82-17.95-26.61-17.95c-6.71,0-12.12,1.65-16.25,4.95&#10;&#9;&#9;c-4.13,3.3-6.19,7.89-6.19,13.77c0,5.37,1.86,9.39,5.57,12.07c3.71,2.68,9.85,5.42,18.41,8.2c3.92,1.34,6.73,2.3,8.43,2.86&#10;&#9;&#9;c1.7,0.57,4.18,1.5,7.43,2.79c3.25,1.29,5.65,2.42,7.2,3.4c1.55,0.98,3.43,2.32,5.65,4.02c2.22,1.7,3.81,3.4,4.8,5.11&#10;&#9;&#9;c0.98,1.7,1.86,3.77,2.63,6.19c0.77,2.42,1.16,5.03,1.16,7.81c0,9.18-3.35,16.53-10.06,22.05&#10;&#9;&#9;C2180.74,469.35,2171.92,472.11,2160.98,472.11z" style="fill: rgb(255, 255, 255);"/>   </g> </svg>