<?xml version="1.0" encoding="iso-8859-1"?>
<!-- Uploaded to: SVG Repo, www.svgrepo.com, Generator: SVG Repo Mixer Tools -->
<!DOCTYPE svg PUBLIC "-//W3C//DTD SVG 1.1//EN" "http://www.w3.org/Graphics/SVG/1.1/DTD/svg11.dtd">
<svg fill="#000000" version="1.1" id="Capa_1" xmlns="http://www.w3.org/2000/svg" xmlns:xlink="http://www.w3.org/1999/xlink" 
	 width="800px" height="800px" viewBox="0 0 178.757 178.756"
	 xml:space="preserve">
<g>
	<g>
		<path d="M89.377,80.162c-21.921,0-39.755,17.836-39.755,39.757s17.833,39.748,39.755,39.748c21.922,0,39.759-17.827,39.759-39.748
			S111.299,80.162,89.377,80.162z M89.377,158.152c-21.123,0-38.245-17.116-38.245-38.233c0-21.116,17.122-38.238,38.245-38.238
			c21.128,0,38.245,17.122,38.245,38.238C127.622,141.036,110.505,158.152,89.377,158.152z"/>
		<polygon points="59.019,0 37.069,0 37.069,48.093 59.019,55.845 		"/>
		<polygon points="141.686,0 119.735,0 119.735,55.845 141.686,48.093 		"/>
		<path d="M78.634,108.981H67.192c14.479,7.474,22.185,37.965,22.185,37.965S89.377,112.717,78.634,108.981z"/>
		<path d="M89.377,146.946c0,0,7.704-30.497,22.178-37.965h-11.442C89.377,112.717,89.377,146.946,89.377,146.946z"/>
		<circle cx="89.377" cy="102.329" r="8.058"/>
		<path d="M141.962,112.352l-8.485-4.247l5.229-7.911c5.122-7.783,1.719-13.676-7.577-13.124l-9.468,0.566l0.568-9.464
			c0.556-9.303-5.346-12.709-13.116-7.581l-7.918,5.228l-4.24-8.489c-0.574-1.13-1.199-2.017-1.858-2.792l16.235-5.731V0H93.579
			v62.994v1.91h-8.404v-1.91V0H67.423v58.808l16.241,5.731c-0.663,0.775-1.292,1.661-1.861,2.792l-4.242,8.489l-7.917-5.228
			c-7.776-5.134-13.676-1.722-13.111,7.581l0.563,9.464l-9.472-0.566c-9.287-0.552-12.695,5.34-7.569,13.124l5.226,7.911
			l-8.487,4.247c-8.328,4.171-8.328,10.975,0,15.147l8.487,4.244l-5.226,7.913c-5.132,7.771-1.723,13.668,7.569,13.121l9.472-0.579
			l-0.563,9.479c-0.564,9.292,5.335,12.7,13.111,7.565l7.917-5.226l4.242,8.493c4.174,8.328,10.977,8.328,15.151,0l4.24-8.493
			l7.918,5.226c7.771,5.139,13.672,1.727,13.116-7.565l-0.568-9.479l9.468,0.579c9.296,0.553,12.695-5.351,7.577-13.121
			l-5.229-7.913l8.485-4.252C150.287,123.327,150.287,116.514,141.962,112.352z M89.377,161.944
			c-23.175,0-42.026-18.851-42.026-42.025c0-23.174,18.851-42.024,42.026-42.024c23.179,0,42.023,18.851,42.023,42.024
			C131.4,143.093,112.556,161.944,89.377,161.944z"/>
	</g>
</g>
</svg>